<?xml version="1.0" encoding="UTF-8"?>
<svg width="64px" height="64px" viewBox="0 0 64 64" version="1.1" xmlns="http://www.w3.org/2000/svg" xmlns:xlink="http://www.w3.org/1999/xlink">
    <title>Group</title>
    <g id="Page-1" stroke="none" stroke-width="1" fill="none" fill-rule="evenodd">
        <g id="Group">
            <rect id="Rectangle" fill="#3178C6" x="0" y="0" width="64" height="64" rx="6"></rect>
            <path d="M37.1311,49.734 L37.1311,56.747 C38.2673,57.331 39.611,57.7695 41.16235,58.0615 C42.7137,58.354 44.34875,58.5 46.0676,58.5 C47.74275,58.5 49.3341,58.3395 50.8415,58.018 C52.3495,57.6965 53.671,57.167 54.8075,56.429 C55.9435,55.691 56.843,54.727 57.506,53.536 C58.1685,52.3455 58.5,50.8735 58.5,49.12035 C58.5,47.8493 58.3105,46.7353 57.932,45.7783 C57.553,44.82135 57.007,43.97035 56.293,43.2252 C55.5795,42.4801 54.7235,41.8117 53.726,41.22 C52.728,40.6283 51.603,40.06945 50.35,39.5435 C49.4324,39.16365 48.6094,38.79475 47.8811,38.4368 C47.15275,38.07885 46.5337,37.7136 46.0239,37.34105 C45.51405,36.96845 45.12075,36.574 44.844,36.1576 C44.56725,35.74125 44.42885,35.27005 44.42885,34.7441 C44.42885,34.26195 44.55265,33.8273 44.8003,33.44015 C45.04795,33.053 45.39755,32.7206 45.8491,32.443 C46.30065,32.16545 46.85415,31.94995 47.50965,31.79655 C48.16515,31.6431 48.89345,31.5664 49.6946,31.5664 C50.2775,31.5664 50.8925,31.61025 51.541,31.6979 C52.189,31.78555 52.841,31.9207 53.4965,32.10335 C54.152,32.28595 54.789,32.51605 55.4085,32.79365 C56.0275,33.07125 56.599,33.39265 57.1235,33.7579 L57.1235,27.20535 C56.06,26.79625 54.8985,26.4931 53.6385,26.29585 C52.3785,26.0986 50.933,26 49.3013,26 C47.64075,26 46.0676,26.17895 44.5818,26.5369 C43.09605,26.89485 41.7887,27.4537 40.6598,28.2134 C39.5309,28.97315 38.6387,29.94105 37.98325,31.11715 C37.32775,32.29325 37,33.69945 37,35.3358 C37,37.42505 37.60085,39.20745 38.8026,40.68305 C40.00435,42.1587 41.82875,43.40785 44.2759,44.43055 C45.2373,44.825 46.13315,45.2122 46.9634,45.59205 C47.7937,45.9719 48.5111,46.36635 49.1156,46.77545 C49.7201,47.18455 50.197,47.63015 50.5465,48.11225 C50.8965,48.5944 51.071,49.14225 51.071,49.7559 C51.071,50.209 50.962,50.629 50.7435,51.016 C50.525,51.403 50.1935,51.739 49.74925,52.024 C49.30495,52.309 48.75145,52.532 48.08865,52.6925 C47.4259,52.853 46.65025,52.9335 45.7617,52.9335 C44.24675,52.9335 42.74645,52.667 41.26065,52.1335 C39.7749,51.6005 38.3984,50.8005 37.1311,49.734 L37.1311,49.734 Z M25.3513,32.2772 L34.5,32.2772 L34.5,26.5 L9,26.5 L9,32.2772 L18.10395,32.2772 L18.10395,58 L25.3513,58 L25.3513,32.2772 Z" id="Shape" fill="#FFFFFF"></path>
        </g>
    </g>
</svg>